<svg xmlns="http://www.w3.org/2000/svg" width="47.715" height="53.499" viewBox="0 0 47.715 53.499"><path d="M517.68,420.872a11.668,11.668,0,0,1,3.509-8.356l0-.018-9.175-9.3a33.841,33.841,0,0,1-24.7,0l-9.175,9.3,0,.018A11.7,11.7,0,0,1,475.8,431a46.792,46.792,0,0,0,7.063,18.91l.41.592,2.153-.837.077.064a38.812,38.812,0,0,0,14.154,6.972,38.776,38.776,0,0,0,14.154-6.972.954.954,0,0,0,.077-.064l2.153.837.41-.592A46.75,46.75,0,0,0,523.515,431,11.7,11.7,0,0,1,517.68,420.872Z" transform="translate(-475.8 -403.2)" fill="#fff"/></svg>