<svg xmlns="http://www.w3.org/2000/svg" width="384.303" height="530.538" viewBox="0 0 384.303 530.538"><path d="M22903.938,6874.479l-190.785-373.76L22521,6877.538v-7.485l192.154-376.812,1.355,2.719,190.793,374.093v7.485Zm-65.975,3.059-124.811-244.862-124.816,244.862h-3.738l128.555-252.347,1.355,3.064,127.2,249.283Zm-68.016,0-56.795-111.549-56.795,111.549h-4.082l60.877-119.028,1.355,2.719,59.52,116.309Zm133.99-136.038-190.785-374.094L22521,6744.225v-7.484l192.154-376.818,1.355,3.064L22905.3,6736.74v7.484Zm0-132.29L22769.947,6347h4.08l131.273,257.79v7.479ZM22521,6604.79,22652.275,6347h4.082L22521,6612.269Zm382.939-128.559L22837.963,6347h3.742l63.6,124.472v7.484ZM22521,6478.956v-7.484L22584.6,6347h3.738Z" transform="translate(-22520.998 -6347)" fill="#fff" opacity="0.02"/></svg>