<?xml version="1.0"?><svg xmlns="http://www.w3.org/2000/svg" width="449.992" height="200.025" viewBox="0 0 449.992 200.025"><g transform="translate(-284 -4530.19)"><g transform="translate(194 276.664)"><path d="M38.516,54.681H24.085L31.771,29.6ZM16.6,82.318,21.526,65.8H40.969l4.61,16.472H63.552L45.7,19.474c-1.057-3.711-3.278-5.424-7.179-5.424H13.026v5.931H15.14c2.664,0,4.1,1.057,4.1,3.077,0,1.343-.3,2.463-1.353,5.519L0,82.318Z" transform="translate(246 4274.504)" fill="#fff"/><path d="M80.913,82.318V19.283c0-3.288-1.924-5.233-5.107-5.233H60v5.931h1.057c2.654,0,3.785,1.131,3.785,3.817v58.52Z" transform="translate(249.438 4274.504)" fill="#fff"/><path d="M106.75,82.318V19.283c0-3.288-1.956-5.233-5.117-5.233H85.88v5.931h1.057c2.664,0,3.8,1.131,3.8,3.817v58.52Z" transform="translate(250.917 4274.504)" fill="#fff"/><path d="M133.267,20.341c0-4.578-3.394-7.4-9.209-7.4s-9.23,2.77-9.23,7.4,3.5,7.4,9.23,7.4,9.209-2.749,9.209-7.4m-.307,62.04V36.432c0-3.278-1.945-5.212-5.128-5.212H112.28v5.815h.92c2.654,0,3.785,1.226,3.785,3.891V82.381Z" transform="translate(252.43 4274.438)" fill="#fff"/><path d="M166.628,56.86v9.949c-2.675,2.759-5.931,4.451-8.691,4.451s-3.891-1.417-3.891-5.286.8-5.508,3.679-6.618a40.875,40.875,0,0,1,8.9-2.5M145.018,44.913a38.6,38.6,0,0,1,15.764-4c4.314,0,5.847,1.533,5.847,6.005v1.142c-6.544,1.057-8.6,1.459-12.285,2.273A36.686,36.686,0,0,0,148.3,52.23c-6.46,2.59-9.515,7.581-9.515,15.246,0,9.727,4.229,14.421,12.888,14.421a23.2,23.2,0,0,0,8.606-1.618,28.62,28.62,0,0,0,6.862-4.4V76.6c0,3.172,1.628,4.789,4.811,4.789H186.59V75.923h-.719c-2.759,0-3.774-1.237-3.774-4.5V47.049c0-12.994-4.514-17.519-17.529-17.519a54.872,54.872,0,0,0-12.254,1.448,41.064,41.064,0,0,0-10.858,4.1Z" transform="translate(253.947 4275.391)" fill="#fff"/><path d="M207.17,81.424V46.831c2.675-2.971,5.424-4.314,8.6-4.314,3.394,0,4.229,1.343,4.229,6.492V81.424H235.96V46.64c0-8.1-.581-10.657-3.172-13.406-2.115-2.379-5.424-3.584-9.642-3.584-6.248,0-10.647,1.935-16.557,7.464V35.074c0-3.172-1.66-4.811-4.927-4.811H186.49v5.815h.92c2.654,0,3.8,1.226,3.8,3.891V81.424Z" transform="translate(256.679 4275.396)" fill="#fff"/><path d="M280.25,70.65H257.973l21.3-29.868V30.21h-33.41c-3.785,0-5.529,1.734-5.529,5.53v9.3h5.931v-.909c0-2.358,1.226-3.478,3.774-3.478h11.482L240,70.862V81.435h40.176Z" transform="translate(259.742 4275.429)" fill="#fff"/></g><path d="M188.349,92.264c12.335-18.038,15.1-37.886,12.336-59.2l11.285,1.13c-1.273,2.221-2.314,4.3-3.635,6.189-.426.607-1.591.7-2.545,1.071,2.088-.356,2.49.77,2.7,2.556a8.5,8.5,0,0,0,3.5,5.8c.225-.512.425-.954.616-1.4,3.662-8.578,15.657-12.395,23.2-7.38,5.908,3.928,8.483,12.637,5.85,19.832a27.252,27.252,0,0,1-7.876,11.4c-6.625,5.68-13.621,10.925-20.328,16.512a165.3,165.3,0,0,0-12.266,11.128,17.206,17.206,0,0,0-3.641,6.451c-1.195,3.529.68,6.787,4.139,8.139.458.179.908.381,1.473.62-.861,1.4-1.976.919-2.891.7a8.5,8.5,0,0,1-6.275-7.912c-.012-.854.091-1.71.153-2.772l-5.794,6.9c6.125-11.822,12.511-23.487,16.542-36.245-.731,1.67-1.448,3.346-2.2,5.007-4.865,10.78-9.851,21.489-16.471,31.357a9.942,9.942,0,0,0-.435,10.783,5.937,5.937,0,0,0,2.465,2.167,3.327,3.327,0,0,1,.646,5.208,10.293,10.293,0,0,1-1.281.76l9.278,11.876a23.965,23.965,0,0,1-12.3,2.945c5.232,1.235,10.017-.453,14.993-2.425.992,1.864,2.024,3.726,2.98,5.627a3.31,3.31,0,0,0,2.587,2.043,3,3,0,0,1,1.835,1.593,97.879,97.879,0,0,1,3.792,9.385c.506,1.542.3,3.317.429,5.145H145.767a48.715,48.715,0,0,1,1.118-6.443c.824-2.659,2.067-5.187,3.094-7.786a3.144,3.144,0,0,1,2.35-2.073,3.812,3.812,0,0,0,2.063-1.58c1.151-1.87,2.093-3.87,3.17-5.915,4.907,1.958,9.759,3.654,15.043,2.431a23.851,23.851,0,0,1-12.338-2.95l9.376-11.982c-2.17-.56-2.543-2.094-2.21-3.833a2.546,2.546,0,0,1,1.2-1.757c3.017-.962,3.482-3.545,3.927-6.036a9.588,9.588,0,0,0-1.574-7.179c-7.317-10.816-12.642-22.658-17.891-34.541a9.088,9.088,0,0,0-.966-1.786c4.194,12.688,10.539,24.368,16.747,36.2-.948-1.1-1.907-2.182-2.839-3.292-.962-1.146-1.9-2.315-3.162-3.867.913,4.7-.433,8.011-4.165,10.229-1.8,1.068-3.277,1.153-4.762.179.6-.306,1.044-.581,1.523-.769,3.457-1.35,5.368-4.627,4.165-8.127a23.047,23.047,0,0,0-3.716-6.626c-4.008-5.077-9.3-8.773-14.377-12.685-5.259-4.05-10.533-8.091-15.631-12.338A37.148,37.148,0,0,1,116.9,63.91c-3.54-6.534-3.4-12.972.813-19.137a13.019,13.019,0,0,1,13.806-5.822c6.421,1.094,11.116,4.542,13.654,10.831a8.33,8.33,0,0,0,3.55-5.915c.211-1.753.655-2.761,1.772-2.534-1.46.3-2.077-1.485-2.925-2.991-.735-1.307-1.476-2.611-2.339-4.136l11.259-1.165c-2.764,21.225-.031,41.13,12.279,59.132.175-.229.286-.322.27-.361-4.591-10.792-6.148-22.2-6.491-33.776-.227-7.676.212-15.37.292-23.057.015-1.468.44-1.977,2.012-1.963,9.207.081,18.416.048,27.625.028,1.017,0,1.739,0,1.832,1.383.988,14.819,1,29.6-2.115,44.2C191.225,83.153,189.693,87.556,188.349,92.264Zm-43.95-35.6c-1.9.327-2.5-.454-2.24-2.13a10.364,10.364,0,0,0,.02-2.094c-.3-5.814-3.948-9.548-9.557-9.806-5.918-.273-9.986,2.847-10.674,8.7a21.624,21.624,0,0,0,.6,7.734c1.3,5.06,4.544,9.031,8.338,12.47,3.1,2.812,6.419,5.392,9.7,8.007,4.474,3.572,9,7.079,13.642,10.724A114.715,114.715,0,0,1,144.4,56.664Zm58.818,33.662c1.558-1.349,3.066-2.763,4.683-4.037,4.852-3.819,9.886-7.42,14.578-11.425a63.971,63.971,0,0,0,8.722-9,18.284,18.284,0,0,0,4.1-14.55c-.923-5.787-4.66-8.835-10.586-8.682-5.419.14-9.037,3.535-9.672,9.122a10.385,10.385,0,0,0-.031,2.616c.254,1.768-.255,2.733-2.249,2.325A123.735,123.735,0,0,1,203.218,90.326Z" transform="translate(169.617 4562.955)" fill="#fff"/><path d="M325.432,33.87V9.926c0-1.908-.678-2.552-2.53-2.552H317.3v2.692h.337c1.278,0,1.527.289,1.527,1.829V33.87Zm2.766,0h6.223V15.221c0-1.873-.722-2.547-2.547-2.547H328.2Zm-11.786,0V12.692h-3.689c-1.825,0-2.538.674-2.538,2.547V33.87Zm23.9-12.171c0,10.552-7.589,18.224-18.009,18.224S304.276,32.25,304.276,21.7s7.6-18.224,18.027-18.224,18.009,7.716,18.009,18.224m3.685,0C344,9.291,334.715,0,322.3,0s-21.7,9.291-21.7,21.7,9.283,21.694,21.7,21.694S344,34.137,344,21.7" transform="translate(25.852 4541.785)" fill="#fff"/><path d="M161.586,175.11c-1.153,9.419-.813,12.191-8.869,13.24,7.92,1.286,8.034,4.187,8.869,13.24,1.1-9.107.887-11.835,8.87-13.24C162.411,187.317,162.682,184.518,161.586,175.11Z" transform="translate(218.754 4355.08)" fill="#fff"/><path d="M144.035,175.353c-.623,5.083-.439,6.579-4.786,7.145,4.274.694,4.335,2.259,4.786,7.145.594-4.914.479-6.386,4.787-7.145C144.48,181.94,144.627,180.43,144.035,175.353Zm4.357,14.265c-.436,3.564-.308,4.613-3.356,5.01,3,.487,3.04,1.584,3.356,5.01.417-3.446.336-4.478,3.356-5.01C148.7,194.237,148.807,193.178,148.392,189.618Z" transform="translate(171.754 4388.129)" fill="#fff"/><path d="M19.7.7A17.572,17.572,0,0,1,6.675-4.525,17.7,17.7,0,0,1,1.5-17.5,17.7,17.7,0,0,1,6.675-30.475,17.572,17.572,0,0,1,19.7-35.7a17.921,17.921,0,0,1,8.7,2.175A16.463,16.463,0,0,1,34.7-27.6l-6.9,4a7.88,7.88,0,0,0-3.3-3.175A10.194,10.194,0,0,0,19.7-27.9a9.888,9.888,0,0,0-7.425,2.85A10.36,10.36,0,0,0,9.5-17.5a10.36,10.36,0,0,0,2.775,7.55A9.888,9.888,0,0,0,19.7-7.1a10.161,10.161,0,0,0,4.825-1.15A7.77,7.77,0,0,0,27.8-11.4l6.9,4a16.092,16.092,0,0,1-6.25,5.925A18.021,18.021,0,0,1,19.7.7ZM61.4-2.55A14.4,14.4,0,0,1,51.7.7,14.4,14.4,0,0,1,42-2.55a10.924,10.924,0,0,1-3.8-8.75V-35h8v23q0,4.9,5.5,4.9T57.2-12V-35h8v23.7A10.924,10.924,0,0,1,61.4-2.55ZM84.2-35a11.917,11.917,0,0,1,8.7,3.5A11.491,11.491,0,0,1,96.45-23a11.49,11.49,0,0,1-3.55,8.5A11.917,11.917,0,0,1,84.2-11H78.95V0h-8V-35Zm0,16.5a3.969,3.969,0,0,0,3.05-1.3,4.542,4.542,0,0,0,1.2-3.2,4.542,4.542,0,0,0-1.2-3.2,3.969,3.969,0,0,0-3.05-1.3H78.95v9ZM111.05,0V-5.8L122.8-18q3.55-3.65,3.55-6.2a3.668,3.668,0,0,0-1-2.675A3.665,3.665,0,0,0,122.6-27.9q-3.5,0-5.15,3.8l-6.75-3.95a11.942,11.942,0,0,1,4.8-5.7,13.2,13.2,0,0,1,7-1.95,12.321,12.321,0,0,1,8.375,3.025,10.228,10.228,0,0,1,3.475,8.125q0,5.55-5.45,11L123.1-7.7h11.75V0Zm51.275-4.275A12.41,12.41,0,0,1,151.85.7a12.41,12.41,0,0,1-10.475-4.975Q137.6-9.25,137.6-17.5t3.775-13.225A12.41,12.41,0,0,1,151.85-35.7a12.41,12.41,0,0,1,10.475,4.975Q166.1-25.75,166.1-17.5T162.325-4.275ZM145.6-17.5q0,10.4,6.25,10.4t6.25-10.4q0-10.4-6.25-10.4T145.6-17.5ZM167.7,0V-5.8L179.45-18Q183-21.65,183-24.2a3.668,3.668,0,0,0-1-2.675,3.665,3.665,0,0,0-2.75-1.025q-3.5,0-5.15,3.8l-6.75-3.95a11.942,11.942,0,0,1,4.8-5.7,13.2,13.2,0,0,1,7-1.95,12.321,12.321,0,0,1,8.375,3.025A10.228,10.228,0,0,1,191-24.55q0,5.55-5.45,11l-5.8,5.85H191.5V0Zm26.65,0V-5.8L206.1-18q3.55-3.65,3.55-6.2a3.668,3.668,0,0,0-1-2.675A3.665,3.665,0,0,0,205.9-27.9q-3.5,0-5.15,3.8L194-28.05a11.942,11.942,0,0,1,4.8-5.7,13.2,13.2,0,0,1,7-1.95,12.321,12.321,0,0,1,8.375,3.025,10.228,10.228,0,0,1,3.475,8.125q0,5.55-5.45,11L206.4-7.7h11.75V0Z" transform="translate(476 4695.664)" fill="#fff"/></g></svg>