<?xml version="1.0" standalone="no"?><svg xmlns="http://www.w3.org/2000/svg" width="821" height="70.955" viewBox="0 0 821 70.955"><g transform="translate(-440 -1424.746)"><path d="M52.895,37.807q1.382,7.8,2.171,15.789t.789,16.283H0V50.833ZM0,40.175V.8H41.546q2.862,6.513,5.132,13.224t3.947,13.717Zm66.316,29.7q-.1-8.98-.888-17.566a166.646,166.646,0,0,0-2.467-17.072L105,24.978v44.9ZM105,.8V14.418L60.789,25.274q-.691-2.664-1.628-5.822t-2.023-6.414q-1.086-3.257-2.22-6.414T52.8.8Z" transform="translate(440 1423.946)" fill="#9c3" fill-rule="evenodd"/><path d="M27.036-31.379h18.9v11.954h-18.9V-4.964l13.5.578V7.569H3.32V-4.193l6.941-.578V-49.118L3.32-49.7V-61.458H58.272V-39.67H45.353L44.389-49.5H32.628l-5.592.386ZM130-49.118V-20a77.538,77.538,0,0,1-1.06,14.075,16.744,16.744,0,0,1-4.145,8.773,16.964,16.964,0,0,1-8.773,4.435,71.913,71.913,0,0,1-14.943,1.253A71.913,71.913,0,0,1,86.133,7.28,16.964,16.964,0,0,1,77.36,2.845a16.744,16.744,0,0,1-4.145-8.773A77.54,77.54,0,0,1,72.154-20V-49.118L65.213-49.7V-61.458H95.87V-49.7l-6.941.578V-20a70.125,70.125,0,0,0,.386,8.291,9.715,9.715,0,0,0,1.639,4.724,5.852,5.852,0,0,0,3.663,2.121,34.355,34.355,0,0,0,6.459.482,34.355,34.355,0,0,0,6.459-.482A5.852,5.852,0,0,0,111.2-6.988a9.715,9.715,0,0,0,1.639-4.724A70.125,70.125,0,0,0,113.223-20V-49.118l-6.941-.578V-61.458h30.657V-49.7ZM201.338-13.64a85.072,85.072,0,0,1-.675,12.147,10.01,10.01,0,0,1-3.471,6.652q-2.8,2.217-8.484,2.8t-15.521.578q-9.833,0-15.521-.578t-8.484-2.8A9.839,9.839,0,0,1,145.712-1.3a79.144,79.144,0,0,1-.675-11.762l16.2-.964a40.491,40.491,0,0,0,.289,5.592,4.46,4.46,0,0,0,1.446,2.892,6.319,6.319,0,0,0,3.567,1.157q2.41.193,6.652.193t6.652-.193a6.9,6.9,0,0,0,3.567-1.06,3.332,3.332,0,0,0,1.35-2.314,28.593,28.593,0,0,0,.193-3.663,20.79,20.79,0,0,0-.289-3.76,4.24,4.24,0,0,0-1.639-2.6,11.992,11.992,0,0,0-4.145-1.832q-2.8-.771-7.616-1.735a122.99,122.99,0,0,1-14.172-3.085,19.527,19.527,0,0,1-7.616-3.856,9.631,9.631,0,0,1-2.989-6.074A78.461,78.461,0,0,1,146-44.008a54.58,54.58,0,0,1,.675-9.544,8.429,8.429,0,0,1,3.374-5.592q2.7-1.928,8.1-2.6A126.481,126.481,0,0,1,173-62.422a144.377,144.377,0,0,1,14.75.578q5.3.578,8,2.6a9.167,9.167,0,0,1,3.374,6.17,73.759,73.759,0,0,1,.675,11.28l-16.2.964a32.67,32.67,0,0,0-.289-5.013,4.333,4.333,0,0,0-1.253-2.6,5.283,5.283,0,0,0-3.085-1.06q-2.121-.193-5.881-.193t-5.977.1a6.806,6.806,0,0,0-3.278.771,3.038,3.038,0,0,0-1.35,2.025,17.667,17.667,0,0,0-.289,3.567,13.387,13.387,0,0,0,.386,3.567,4.359,4.359,0,0,0,2.217,2.41,23.4,23.4,0,0,0,5.4,2.025q3.567.964,9.93,2.121,6.941,1.35,11.183,2.507a16.356,16.356,0,0,1,6.459,3.085,9.033,9.033,0,0,1,2.892,5.11A44.437,44.437,0,0,1,201.338-13.64Zm66.327,0a85.069,85.069,0,0,1-.675,12.147,10.01,10.01,0,0,1-3.471,6.652q-2.8,2.217-8.484,2.8t-15.521.578q-9.833,0-15.521-.578t-8.484-2.8A9.839,9.839,0,0,1,212.04-1.3a79.144,79.144,0,0,1-.675-11.762l16.2-.964a40.488,40.488,0,0,0,.289,5.592A4.46,4.46,0,0,0,229.3-5.542a6.319,6.319,0,0,0,3.567,1.157q2.41.193,6.652.193t6.652-.193a6.9,6.9,0,0,0,3.567-1.06,3.332,3.332,0,0,0,1.35-2.314,28.593,28.593,0,0,0,.193-3.663,20.792,20.792,0,0,0-.289-3.76,4.24,4.24,0,0,0-1.639-2.6,11.992,11.992,0,0,0-4.145-1.832q-2.8-.771-7.616-1.735a122.99,122.99,0,0,1-14.172-3.085,19.527,19.527,0,0,1-7.616-3.856,9.631,9.631,0,0,1-2.989-6.074,78.464,78.464,0,0,1-.482-9.641A54.58,54.58,0,0,1,213-53.553a8.429,8.429,0,0,1,3.374-5.592q2.7-1.928,8.1-2.6a126.481,126.481,0,0,1,14.847-.675,144.377,144.377,0,0,1,14.75.578q5.3.578,8,2.6a9.167,9.167,0,0,1,3.374,6.17,73.761,73.761,0,0,1,.675,11.28l-16.2.964a32.672,32.672,0,0,0-.289-5.013,4.333,4.333,0,0,0-1.253-2.6A5.283,5.283,0,0,0,245.3-49.5q-2.121-.193-5.881-.193t-5.977.1a6.806,6.806,0,0,0-3.278.771,3.038,3.038,0,0,0-1.35,2.025,17.667,17.667,0,0,0-.289,3.567,13.387,13.387,0,0,0,.386,3.567,4.359,4.359,0,0,0,2.217,2.41,23.4,23.4,0,0,0,5.4,2.025q3.567.964,9.93,2.121,6.941,1.35,11.183,2.507a16.356,16.356,0,0,1,6.459,3.085,9.033,9.033,0,0,1,2.892,5.11A44.435,44.435,0,0,1,267.666-13.64Zm58.808-14.654a17.532,17.532,0,0,1,5.592,2.121,9.666,9.666,0,0,1,3.278,3.374,13.415,13.415,0,0,1,1.542,4.917,53.5,53.5,0,0,1,.386,6.941,45.757,45.757,0,0,1-.868,9.93,8.725,8.725,0,0,1-3.953,5.688q-3.085,1.928-9.062,2.41t-16,.482h-30.85V-4.193l6.941-.578V-49.118l-6.941-.578V-61.458h30.657a142.381,142.381,0,0,1,14.461.578q5.4.578,8.1,2.507a8.791,8.791,0,0,1,3.471,5.592,48.521,48.521,0,0,1,.771,9.641q0,3.085-.193,5.4a11.922,11.922,0,0,1-1.06,4.145,8.742,8.742,0,0,1-2.41,3.085A15.6,15.6,0,0,1,326.474-28.294ZM317.8-42.177a22.525,22.525,0,0,0-.289-4.145,2.9,2.9,0,0,0-1.639-2.121,11.222,11.222,0,0,0-4.049-.868q-2.7-.193-7.52-.193l-4.049.386v16.2H304.3q4.82,0,7.52-.193a8.773,8.773,0,0,0,4.049-1.06,3.789,3.789,0,0,0,1.639-2.8A36.817,36.817,0,0,0,317.8-42.177ZM307.385-4.385q4.82,0,7.52-.193a7.982,7.982,0,0,0,4.049-1.157,4.045,4.045,0,0,0,1.639-2.8,33,33,0,0,0,.289-4.917,29.079,29.079,0,0,0-.289-4.724,3.281,3.281,0,0,0-1.639-2.41,9.812,9.812,0,0,0-4.049-.964q-2.7-.193-7.52-.193h-7.134V-4.771l3.856.386Zm81.56,11.954V-3.807l3.471-.578-2.121-6.941H367.35l-2.314,7.134,3.856.771V7.569H343.248V-4.193l6.17-.386,16-44.54-8.291-.578V-61.458h32.2L409.576-4.771l6.363.578V7.569ZM383.16-31.958q-1.157-3.663-2.217-7.52a61.063,61.063,0,0,1-1.639-8.291h-1.157q-.771,4.435-1.639,8.291a59.514,59.514,0,0,1-2.217,7.52l-3.663,10.6h16ZM476.867,7.569H420.952V-4.193l6.941-.578V-49.118l-6.941-.578V-61.458h30.657V-49.7l-6.941.578V-4.771l5.592.386H463.37l.964-13.111h12.533Zm62.857,0H483.808V-4.193l6.941-.578V-49.118l-6.941-.578V-61.458h30.657V-49.7l-6.941.578V-4.771l5.591.386h13.111l.964-13.111h12.533ZM557.848-8.82a29.388,29.388,0,0,1,4.627.289,4.822,4.822,0,0,1,2.7,1.253,4.732,4.732,0,0,1,1.253,2.6,27.507,27.507,0,0,1,.289,4.531,27.507,27.507,0,0,1-.289,4.531,4.732,4.732,0,0,1-1.253,2.6,4.822,4.822,0,0,1-2.7,1.253,30.187,30.187,0,0,1-4.724.289,30.187,30.187,0,0,1-4.724-.289,4.822,4.822,0,0,1-2.7-1.253,4.733,4.733,0,0,1-1.253-2.6,27.507,27.507,0,0,1-.289-4.531,27.507,27.507,0,0,1,.289-4.531,4.733,4.733,0,0,1,1.253-2.6,4.822,4.822,0,0,1,2.7-1.253A31,31,0,0,1,557.848-8.82Zm80.4-18.124q0,7.712-.289,13.3a40.637,40.637,0,0,1-1.446,9.448,15.629,15.629,0,0,1-3.278,6.17,13.756,13.756,0,0,1-5.592,3.567,32.317,32.317,0,0,1-8.387,1.639q-4.917.386-12.051.386H576.551V-4.193l6.941-.578V-49.118l-6.941-.578V-61.458h30.657q7.134,0,12.147.386a32.563,32.563,0,0,1,8.484,1.639,12.978,12.978,0,0,1,5.5,3.567,16.408,16.408,0,0,1,3.181,6.17,40.636,40.636,0,0,1,1.446,9.448Q638.251-34.657,638.251-26.944Zm-32.2,22.559a59.712,59.712,0,0,0,8.677-.482,6.579,6.579,0,0,0,4.628-2.7q1.543-2.217,1.832-6.845t.289-12.533q0-7.905-.289-12.436t-1.928-6.748a7.277,7.277,0,0,0-4.724-2.8,48.442,48.442,0,0,0-8.484-.578h-1.928l-3.856.386V-4.771l3.856.386ZM704,7.569H648.084V-4.193l6.941-.578V-49.118l-6.941-.578V-61.458h54.952v20.824H690.117l-.964-8.869H677.392l-5.592.386v16.582h16.775v11.954H671.8V-4.771l6.941.578H690.31l.771-8.869H704Z" transform="translate(557 1487.168)" fill="#1c1c1c"/></g></svg>