<?xml version="1.0"?><svg xmlns="http://www.w3.org/2000/svg" width="393.67" height="374.133" viewBox="0 0 393.67 374.133"><path d="M572.83,530.8l-46.176-64.6,42.18-33.742-12.875-4.293c-14.8-4.809-29.156-9.1-43.73-12.727v0A378.809,378.809,0,0,0,546.194,257.6v-7.4h-7.4c-65.93,0-124.76-21.238-157.32-56.828L376,187.448l-5.477,5.918c-34.039,37-88.8,56.828-157.32,56.828l-7.4,0v7.4a378.837,378.837,0,0,0,33.965,157.84c-14.8,3.625-29.156,7.918-43.73,12.727l-12.875,4.293L225.34,466.2l-46.18,64.6,21.6-7.4,0,0a568.581,568.581,0,0,1,95.457-22.938,301.516,301.516,0,0,0,76.215,59.2l3.551,1.926,3.551-1.926h0a301.557,301.557,0,0,0,76.215-59.2,568.145,568.145,0,0,1,95.457,23.531ZM220.61,265c66.6-1.332,119.58-20.57,155.39-55.867C410.777,242.8,467.754,263.445,531.39,265a360.625,360.625,0,0,1-33.816,147.11,549.54,549.54,0,0,0-243,0A360.54,360.54,0,0,1,220.609,265ZM376,545.15a287.349,287.349,0,0,1-61.418-46.988,532.545,532.545,0,0,1,122.84,0A287.249,287.249,0,0,1,376,545.15Zm0-65.562a561.618,561.618,0,0,0-158.72,23.16l28.191-39.516L213.8,437.849l0,0a541.487,541.487,0,0,1,324.4,0l-31.672,25.383,28.191,39.516,0,0A561.7,561.7,0,0,0,376,479.588Z" transform="translate(-179.16 -187.448)" fill="#000"/></svg>