<?xml version="1.0"?><svg xmlns="http://www.w3.org/2000/svg" width="112.75" height="126.419" viewBox="0 0 112.75 126.419"><g transform="translate(-475.8 -403.2)"><path d="M574.762,444.96a27.572,27.572,0,0,1,8.292-19.745l-.011-.043L561.362,403.2a79.966,79.966,0,0,1-58.375,0l-21.681,21.971-.011.043a27.657,27.657,0,0,1-5.5,43.674c2.6,16.723,7.958,31.382,16.691,44.685l.968,1.4,5.087-1.979.183.151c9.787,7.42,21.036,13.454,33.446,16.476,12.421-3.022,23.66-9.055,33.446-16.476a2.262,2.262,0,0,0,.183-.151l5.087,1.979.968-1.4c8.743-13.314,14.088-27.962,16.691-44.685A27.652,27.652,0,0,1,574.762,444.96Z" fill="#173691"/><path d="M561.358,557.453a88.63,88.63,0,0,1-31.489-15.723.542.542,0,0,0-.086-.064l-1.463-1.2-4.452,1.732A107.02,107.02,0,0,1,508.5,501.627a31,31,0,0,0,13.5-25.52,30.6,30.6,0,0,0-7.087-19.681L532.988,438.1a83.313,83.313,0,0,0,56.741,0l18.078,18.326a30.578,30.578,0,0,0-7.087,19.681,31,31,0,0,0,13.486,25.51c-2.635,15.314-7.668,28.618-15.368,40.566l-4.452-1.732-1.463,1.2s-.054.043-.086.065C582.7,549.419,572.1,554.711,561.358,557.453Z" transform="translate(-29.184 -31.146)" fill="#fff"/><path d="M692.457,715.463a32.861,32.861,0,0,1,1.291-9.163L613.1,771.01q2.178,4.387,4.775,8.539l4.1-1.592s2.216,1.839,2.237,1.85a87.247,87.247,0,0,0,30.5,15.325,87.251,87.251,0,0,0,30.5-15.325c.011-.011,2.237-1.85,2.237-1.85l4.1,1.592a105.2,105.2,0,0,0,14.25-37.856A32.472,32.472,0,0,1,692.457,715.463Z" transform="translate(-122.534 -270.503)" fill="#7fb7ec"/><path d="M1139.34,675.19l.871,2.527,2.893-2.323-2.28-1.4a30.174,30.174,0,0,1-2.624-1.8c.14.312.333.807.581,1.463C1138.985,674.168,1139.168,674.674,1139.34,675.19Z" transform="translate(-591.162 -240.07)" fill="#173691"/><path d="M830.053,892.584l-1.753,1.4,5.517,6.894,1.828-1.473a3.7,3.7,0,0,0,1.635-2.592,5.193,5.193,0,0,0-1.366-3.388Q833.22,890.052,830.053,892.584Z" transform="translate(-314.592 -435.784)" fill="#173691"/><path d="M604.024,455.5a84.884,84.884,0,0,1-55.891,0l-16.347,16.573a31.983,31.983,0,0,1,6.549,19.562A32.507,32.507,0,0,1,525,517.876a109.06,109.06,0,0,0,8.808,27.929l82.218-65.979a32.179,32.179,0,0,1,4.356-7.765Zm-39.813,13.067,5.625,3.721c.473.312,1.237.86,2.3,1.656,1.108.817,2.011,1.549,2.721,2.172q-.468-.839-1.033-2.1c-.14-.3-.376-.828-.731-1.6-.312-.688-.591-1.377-.85-2.054l-2.42-6.291,2.818-2.258,5.786,15.669-3.087,2.484-13.948-9.141Zm-11.518,10.389a7.178,7.178,0,0,1,2.721-3.839c1.817-1.452,3.581-1.968,5.291-1.527a5.129,5.129,0,0,1,2.581,1.742L560.7,477.4q-1.645-1.758-3.839,0c-1.344,1.076-1.645,2.086-.893,3.033a1.215,1.215,0,0,0,1.226.506,8.878,8.878,0,0,0,1.688-.592c.011-.011.258-.118.731-.344l.333-.15.355-.161a12.742,12.742,0,0,1,3.828-1.3,3.954,3.954,0,0,1,3.614,1.549,4.511,4.511,0,0,1,.979,4.044,7.717,7.717,0,0,1-2.936,4.1A7.5,7.5,0,0,1,561.006,490a5.322,5.322,0,0,1-4.065-2.119l2.688-2.151a3.015,3.015,0,0,0,1.818,1.129,3.774,3.774,0,0,0,2.839-1.022,3.5,3.5,0,0,0,1.291-1.764,1.806,1.806,0,0,0-.355-1.7,1.57,1.57,0,0,0-1.871-.4,13.881,13.881,0,0,0-1.355.505c.118-.054-.43.183-1.656.71a17.976,17.976,0,0,1-2.291.86,3.878,3.878,0,0,1-4.517-1.344A4.2,4.2,0,0,1,552.693,478.955Zm-2.979,1.215,1.828,2.28-3.764,3.011,8.077,10.088-2.688,2.151-8.077-10.088-3.732,2.99-1.828-2.28Zm-4.7,49.417-3.8-4.743-4.474,3.581,3.8,4.743-2.377,1.9-8.743-10.916,2.377-1.9,3.334,4.162,4.474-3.581-3.334-4.162,2.377-1.9,8.743,10.916Zm3.947-3.151-8.743-10.916,8.184-6.55,1.613,2.011-5.807,4.657,1.871,2.344,5.334-4.269,1.505,1.882-5.334,4.27,2.14,2.667,5.926-4.743,1.613,2.011Zm9.475-7.593-8.743-10.916,2.377-1.9,8.743,10.916ZM569.524,507.9a4.911,4.911,0,0,1-.764,2.2,8.772,8.772,0,0,1-1.936,2.022l-4.452,3.571-8.743-10.916,4.4-3.527a6.69,6.69,0,0,1,4.592-1.742,6.944,6.944,0,0,1,5.022,2.914A7.223,7.223,0,0,1,569.524,507.9Zm3.656-.86-8.743-10.916,8.184-6.549,1.613,2.011-5.807,4.657,1.871,2.344,5.334-4.27,1.506,1.882-5.334,4.27,2.14,2.667,5.926-4.743,1.613,2.011Zm16.315-13.056-7.474-2.667c-.021,0-.452-.161-1.3-.484-.42-.161-1.1-.452-2.022-.85l.484.527c.226.226.645.721,1.269,1.463l.8,1,3.721,4.646-2.291,1.839-8.743-10.916,2.42-1.936,7.3,2.613c.785.29,1.484.549,2.086.8q.4.161,1.355.581c-.161-.194-.505-.57-1.032-1.14l-.258-.28-.247-.312-.645-.807c-.2-.258-.344-.441-.42-.527l-3.646-4.549,2.291-1.839,8.743,10.916Zm11.174-8.948-2.818-1.742-4.065,3.248,1.065,3.151-2.452,1.968-4.592-14.271,2.452-1.968,12.916,7.6Zm7.722-5.754c-1.936,1.549-3.721,2.054-5.377,1.506a7.28,7.28,0,0,1-3.108-2.538l-5.141-6.42,2.377-1.9,5.27,6.582A4.243,4.243,0,0,0,604.2,478a2.865,2.865,0,0,0,2.667-.764,2.714,2.714,0,0,0,1.237-1.979,4.076,4.076,0,0,0-1.108-2.43l-5.27-6.582,2.377-1.9,5.162,6.453a9.753,9.753,0,0,1,1.387,2.14,4.773,4.773,0,0,1,.387,1.925Q611.036,477.165,608.39,479.278Z" transform="translate(-43.908 -46.676)" fill="#173691"/><path d="M718.671,1289.7l1.8,4.947-1.2.957-4.463-2.818,1.118-.893,1.742,1.151c.28.183.6.42.946.688a6.3,6.3,0,0,1,.484.409,7.112,7.112,0,0,1-.355-.731c-.1-.236-.226-.527-.366-.882l-.774-1.968Z" transform="translate(-213.297 -791.162)" fill="#173691"/><path d="M760.861,1268.016a2.426,2.426,0,0,1,1.882-.581,2.656,2.656,0,0,1,1.742,1.054,2.553,2.553,0,0,1,.634,1.925,2.786,2.786,0,0,1-2.925,2.323,2.561,2.561,0,0,1-1.742-1.022,2.453,2.453,0,0,1,.409-3.7Zm.591.818a1.037,1.037,0,0,0-.419.893,1.989,1.989,0,0,0,.495,1.129,1.936,1.936,0,0,0,.99.721,1.077,1.077,0,0,0,.968-.226,1.046,1.046,0,0,0,.419-.882,1.913,1.913,0,0,0-.484-1.119,2.06,2.06,0,0,0-1-.742A1.077,1.077,0,0,0,761.453,1268.833Z" transform="translate(-253.453 -771.273)" fill="#173691"/><path d="M795.022,1234.245l.43.537a1.977,1.977,0,0,1,.785-1.688,1.555,1.555,0,0,1,1.549-.366,2.5,2.5,0,0,1,1.022.85l1.968,2.441-1.075.86-1.785-2.237a2.413,2.413,0,0,0-.505-.505.767.767,0,0,0-.893.161.934.934,0,0,0-.376,1,2.074,2.074,0,0,0,.441.763l1.613,2.011-1.076.86L794,1235.041Z" transform="translate(-283.979 -740.244)" fill="#173691"/><path d="M910.87,1118.5l10.142,12.669-2.57,2.054-6.635-8.281-3.033,2.431-1.473-1.839a5.671,5.671,0,0,0,2.043-2.9,3.7,3.7,0,0,0-.495-2.516Z" transform="translate(-385.096 -638.373)" fill="#173691"/><path d="M997.715,1060.956l2.43-1.946a2.136,2.136,0,0,0,2.936.021c1.312-1.054,1.075-2.936-.731-5.657a4.125,4.125,0,0,1-1.549,3.646,4.871,4.871,0,0,1-3.839,1.14,5.881,5.881,0,0,1-4.786-6.378,5.846,5.846,0,0,1,2.291-3.9,5.3,5.3,0,0,1,4.99-1.011,9.341,9.341,0,0,1,4.6,3.452,11.86,11.86,0,0,1,2.581,5.323,5.345,5.345,0,0,1-2.065,5.42,5.489,5.489,0,0,1-3.56,1.333A4.755,4.755,0,0,1,997.715,1060.956Zm-1.678-10.916a2.328,2.328,0,0,0-.882,1.785,3.053,3.053,0,0,0,.721,2.087,3.384,3.384,0,0,0,1.914,1.258,2.185,2.185,0,0,0,1.936-.441,2.422,2.422,0,0,0,.968-1.839,3.2,3.2,0,0,0-.807-2.161,3.087,3.087,0,0,0-1.882-1.172A2.376,2.376,0,0,0,996.037,1050.04Z" transform="translate(-460.797 -574.236)" fill="#173691"/><path d="M1104.448,975.579l1.774,2.215-9.27,7.421a6.359,6.359,0,0,1-1.538-4.571,13.949,13.949,0,0,1,.527-2.667c.086-.28.226-.753.419-1.409l.161-.548.15-.527.183-.527a3.766,3.766,0,0,0-.29-3.764,2.306,2.306,0,0,0-1.548-.914,2.233,2.233,0,0,0-1.7.538q-1.984,1.6.161,4.431l-2.452,1.968a1.977,1.977,0,0,1-.247-.269,6.026,6.026,0,0,1-1.5-4.42,5.652,5.652,0,0,1,2.3-3.947,5.818,5.818,0,0,1,4.011-1.452,4.607,4.607,0,0,1,3.452,1.839,5.121,5.121,0,0,1,1.043,4.388c-.065.344-.258,1.011-.57,2.011q-.08.258-.29.9l-.107.3-.086.29a10.392,10.392,0,0,0-.581,3.635q1.258-1.129,2.1-1.807Z" transform="translate(-547.484 -503.281)" fill="#173691"/><path d="M1222.8,889.224l1.72,2.14-1.624,1.3,2.323,2.893-2.506,2.011-2.323-2.893-5.366,4.3-1.9-2.377-.419-11.8,2.377-1.9,6.109,7.625Zm-4.076,3.259-1.914-2.4c-.817-1.022-1.484-1.861-2.011-2.506.14,1.065.247,1.968.312,2.7l.183,2.387c.032.29.043.71.043,1.226.011.247.021.7.032,1.366l.193-.151a4.478,4.478,0,0,0,.645-.613c.193-.151.312-.247.366-.29Z" transform="translate(-657.65 -428.111)" fill="#173691"/><path d="M1053.267,1319.928l2.452-1.968a5.045,5.045,0,0,1,.29,3.538,6.04,6.04,0,0,1-2.151,3.119,5.9,5.9,0,0,1-4.538,1.43,6.932,6.932,0,0,1-5.635-7.109,5.725,5.725,0,0,1,2.258-4.108,5.4,5.4,0,0,1,4.474-1.237,7.024,7.024,0,0,1,4.281,2.753l.312.387-6.7,5.366c1.355,1.559,2.721,1.775,4.119.667A2.474,2.474,0,0,0,1053.267,1319.928Zm-6.281.538,4.1-3.28q-1.92-1.92-3.689-.495a2.454,2.454,0,0,0-.968,1.71A3.058,3.058,0,0,0,1046.986,1320.466Z" transform="translate(-506.789 -812.41)" fill="#173691"/><path d="M1164.614,1329.2l2.291,2.861-2.914,2.334-2.291-2.861Z" transform="translate(-612.135 -826.413)" fill="#173691"/><path d="M1125.2,1149.4l6.022,16.315-3.2,2.57-14.519-9.507,2.936-2.355,5.851,3.871c.494.323,1.29.9,2.4,1.721,1.151.849,2.086,1.613,2.828,2.269-.323-.592-.678-1.312-1.075-2.183-.14-.312-.4-.86-.763-1.667-.323-.72-.613-1.43-.893-2.14l-2.516-6.539Z" transform="translate(-569.119 -665.95)" fill="#173691"/><path d="M1280.115,1236.3l2.291,2.861-2.914,2.334-2.291-2.861Z" transform="translate(-715.215 -743.505)" fill="#173691"/></g></svg>